<svg xmlns="http://www.w3.org/2000/svg" width="256" height="256" viewBox="0 0 100 100"><rect width="100" height="100" rx="20" fill="#183593"></rect><path fill="#fff" d="M11.30 66.92L11.30 66.92Q9.28 66.92 8.33 65.89Q7.39 64.85 7.39 62.55L7.39 62.55Q7.39 61.34 7.54 59.61Q7.70 57.88 8.08 55.22Q8.47 52.56 9.10 48.56Q9.73 44.55 10.67 38.80L10.67 38.80L8.96 35.38Q10.76 34.30 12.45 33.69Q14.14 33.08 15.53 33.08L15.53 33.08Q17.96 33.08 17.96 36.05L17.96 36.05Q17.96 36.50 17.76 37.87Q17.56 39.25 17.24 41.20Q16.93 43.16 16.52 45.50Q16.12 47.84 15.71 50.23Q15.31 52.61 14.97 54.75Q14.63 56.88 14.43 58.53Q14.23 60.17 14.23 61.02L14.23 61.02Q14.23 62.42 14.70 63.39Q15.17 64.36 16.16 65.12L16.16 65.12Q13.82 66.92 11.30 66.92ZM21.83 66.88L21.83 66.88Q19.13 66.88 16.54 66.22Q13.96 65.57 11.84 64.31L11.84 64.31L12.88 61.52L22.78 61.52Q24.26 61.34 25.59 61.02Q26.92 60.71 28.18 60.17L28.18 60.17Q28.45 60.84 28.54 61.34Q28.63 61.84 28.63 62.47L28.63 62.47Q28.63 64.67 26.96 65.77Q25.30 66.88 21.83 66.88ZM19.27 53.55L19.27 53.55Q18.14 53.55 16.97 53.38Q15.80 53.20 14.18 52.79L14.18 52.79L14.90 49.05Q16.12 49.23 17.35 49.33Q18.59 49.41 19.94 49.41L19.94 49.41L23.50 48.56Q23.54 48.88 23.56 49.26Q23.59 49.64 23.59 49.95L23.59 49.95Q23.59 51.66 22.46 52.61Q21.34 53.55 19.27 53.55ZM24.26 40.78L24.26 40.78Q22.69 40.78 21.04 40.59Q19.40 40.42 17.80 40.01Q16.21 39.61 14.72 39.06L14.72 39.06L15.62 35.33Q18.64 35.33 20.98 35.06Q23.32 34.79 25.57 34.36Q27.82 33.94 30.52 33.35L30.52 33.35Q30.70 33.98 30.74 34.52Q30.79 35.06 30.79 35.55L30.79 35.55Q30.79 37.31 29.91 38.48Q29.03 39.65 27.57 40.21Q26.11 40.78 24.26 40.78ZM36.14 66.88L36.14 66.88Q34.57 66.88 33.51 65.82Q32.45 64.76 32.45 63.27L32.45 63.27Q32.45 62.10 33.01 61.12Q33.58 60.13 34.54 59.52Q35.51 58.91 36.77 58.91L36.77 58.91Q38.39 58.91 39.43 59.95Q40.46 60.98 40.46 62.51L40.46 62.51Q40.46 63.63 39.88 64.63Q39.29 65.61 38.32 66.25Q37.36 66.88 36.14 66.88ZM51.04 66.88L51.04 66.88Q49.01 66.88 48.07 65.84Q47.12 64.81 47.12 62.51L47.12 62.51Q47.12 61.30 47.28 59.59Q47.44 57.88 47.82 55.20Q48.20 52.52 48.83 48.52Q49.46 44.51 50.41 38.80L50.41 38.80L48.70 35.38Q50.50 34.30 52.18 33.69Q53.87 33.08 55.27 33.08L55.27 33.08Q57.70 33.08 57.70 36.05L57.70 36.05Q57.70 36.50 57.49 37.85Q57.29 39.20 56.98 41.18Q56.66 43.16 56.26 45.48Q55.85 47.80 55.45 50.18Q55.04 52.56 54.70 54.70Q54.37 56.84 54.16 58.48Q53.96 60.13 53.96 60.98L53.96 60.98Q53.96 62.51 54.25 63.59Q54.55 64.67 55.13 65.44L55.13 65.44Q53.15 66.88 51.04 66.88ZM75.06 66.88L75.06 66.88Q71.11 66.88 68.14 65.14Q65.17 63.41 63.55 60.33Q61.93 57.25 61.93 53.06L61.93 53.06Q61.93 48.47 63.30 44.80Q64.67 41.14 67.08 38.53Q69.48 35.92 72.59 34.52Q75.70 33.13 79.12 33.13L79.12 33.13Q81.64 33.13 82.76 33.89Q83.89 34.66 83.89 36.32L83.89 36.32Q83.89 36.86 83.82 37.31Q83.75 37.76 83.48 38.34L83.48 38.34Q82.98 38.21 82.20 38.10Q81.41 37.98 80.83 37.98L80.83 37.98Q77.45 37.98 74.75 39.90Q72.05 41.81 70.50 45.19Q68.95 48.56 68.95 52.97L68.95 52.97Q68.95 58.10 71.04 60.66Q73.13 63.23 76.55 63.23L76.55 63.23Q78.35 63.23 80.15 62.38Q81.95 61.52 83.53 59.95Q85.10 58.37 86.22 56.14Q87.35 53.91 87.71 51.17L87.71 51.17Q84.69 49.82 83.57 47.77Q82.44 45.73 82.44 43.48L82.44 43.48Q82.44 41.95 83.08 40.73Q83.70 39.52 84.81 38.80Q85.91 38.08 87.26 38.08L87.26 38.08Q89.83 38.08 91.22 40.23Q92.62 42.39 92.62 46.13L92.62 46.13Q92.62 50.54 91.31 54.32Q90.00 58.10 87.64 60.91Q85.28 63.73 82.06 65.30Q78.84 66.88 75.06 66.88Z"></path></svg>