<?xml version="1.0" standalone="no"?>
<!DOCTYPE svg PUBLIC "-//W3C//DTD SVG 20010904//EN"
 "http://www.w3.org/TR/2001/REC-SVG-20010904/DTD/svg10.dtd">
<svg version="1.0" xmlns="http://www.w3.org/2000/svg"
 width="417" height="96" viewBox="0 0 600.000000 224.000000"
 preserveAspectRatio="xMidYMid meet">

<g transform="translate(0.000000,224.000000) scale(0.100000,-0.100000)"
fill="#000000" stroke="none">
<path d="M1021 2105 c-163 -30 -331 -97 -462 -186 -97 -65 -246 -221 -301
-314 -94 -162 -138 -318 -138 -489 2 -345 184 -652 499 -839 440 -262 1012
-206 1389 135 258 233 370 580 295 913 -90 398 -465 723 -907 784 -103 15
-283 12 -375 -4z m381 -519 c78 -28 136 -70 178 -131 36 -52 64 -154 55 -195
l-7 -30 59 0 c214 0 294 -237 111 -331 -21 -10 -47 -19 -58 -19 -11 0 -22 -6
-24 -12 -2 -7 -9 -31 -15 -53 -14 -55 -72 -120 -128 -145 -84 -37 -195 -18
-252 44 l-24 26 -38 -35 c-51 -46 -83 -61 -159 -75 -115 -21 -213 5 -294 79
-32 29 -76 114 -76 148 0 15 -9 24 -33 32 -122 41 -185 197 -130 322 24 54 89
114 141 129 39 12 134 10 164 -4 13 -6 19 -3 24 10 65 211 288 317 506 240z"/>
<path d="M3261 1506 c-8 -9 -11 -101 -9 -317 l3 -304 175 0 c168 0 175 1 175
20 0 19 -8 20 -147 23 l-148 3 0 119 0 120 68 0 c69 0 95 11 85 36 -4 10 -25
14 -79 14 l-74 0 0 125 0 125 144 0 c146 0 170 6 146 35 -17 21 -322 22 -339
1z"/>
<path d="M5271 1506 c-8 -9 -11 -101 -9 -317 l3 -304 25 0 25 0 3 304 c2 294
-1 331 -28 331 -4 0 -13 -6 -19 -14z"/>
<path d="M5571 1510 c-44 -11 -81 -39 -106 -81 -18 -31 -20 -52 -20 -234 0
-182 2 -203 20 -234 27 -46 61 -69 117 -80 91 -16 163 12 203 80 17 29 20 56
24 187 5 239 -10 300 -84 343 -37 21 -109 30 -154 19z m129 -69 c47 -34 51
-52 48 -259 l-3 -194 -33 -29 c-27 -25 -41 -29 -87 -29 -46 0 -60 4 -87 29
l-33 29 0 205 c0 204 0 206 24 231 44 47 118 54 171 17z"/>
<path d="M4822 1478 c-19 -19 -17 -487 3 -534 17 -42 68 -66 128 -62 34 2 42
7 42 23 0 17 -8 21 -45 23 -76 6 -80 14 -80 179 l0 143 66 0 c57 0 65 2 62 18
-3 14 -16 18 -66 20 l-62 3 0 87 c0 80 -9 112 -30 112 -3 0 -11 -5 -18 -12z"/>
<path d="M4087 1285 c-87 -30 -117 -83 -117 -200 0 -109 16 -146 78 -182 80
-47 232 -29 232 27 0 24 -24 26 -60 5 -48 -28 -133 -12 -173 32 -9 11 -18 37
-20 59 l-2 39 122 5 c70 3 127 10 133 16 13 13 16 56 6 101 -9 40 -63 88 -113
102 -46 13 -39 13 -86 -4z m108 -57 c31 -25 58 -80 49 -102 -5 -13 -26 -16
-115 -16 -99 0 -109 2 -109 19 0 94 105 154 175 99z"/>
<path d="M4516 1290 c-16 -5 -39 -18 -51 -30 l-23 -21 -6 25 c-7 29 -40 36
-50 10 -10 -26 -7 -341 4 -368 11 -29 35 -34 44 -10 3 9 6 73 6 142 0 147 13
181 74 202 29 9 41 8 71 -6 56 -26 65 -54 65 -201 0 -70 4 -134 9 -141 5 -8
17 -12 27 -10 17 3 19 15 22 128 2 69 0 140 -3 158 -8 45 -68 109 -113 122
-42 11 -37 11 -76 0z"/>
<path d="M3583 1278 c-8 -9 10 -65 62 -201 40 -104 77 -193 83 -199 6 -6 17
-8 25 -5 18 7 161 383 153 403 -3 9 -14 14 -23 12 -13 -2 -35 -48 -77 -161
-32 -86 -61 -155 -63 -153 -3 3 -31 74 -62 158 -56 151 -73 177 -98 146z"/>
</g>
</svg>
